# xmcd
#
# Track frame offsets: 
#        150
#        22055
#        36716
#        47792
#        72407
#        92859
#        106558
#        125785
#        142350
#        156055
#        161905
#        171951
#        184632
#        198819
#        225830
#        237974
#        249222
#
# Disc length: 3503 seconds
#
# Revision: 0
# Processed by: cddbd v1.5.2PL0 Copyright (c) Steve Scherf et al.
# Submitted via: ExactAudioCopy v1.2
#
DISCID=ed0dad11
DTITLE=Marvin Gaye - 50 [CD1]
DYEAR=2007
DGENRE=Soul
TTITLE0=Let's Get It On
TTITLE1=I Heard It Through The Grapevine
TTITLE2=Marvin Gaye and Tammi Terrell - Ain't No Mountain High Enough
TTITLE3=Inner City Blues (Make Me Wanna Holler)
TTITLE4=I Want You
TTITLE5=Marvin Gaye and Tammi Terrell - You Precious Love
TTITLE6=Distant Lover
TTITLE7=Unforgettable
TTITLE8=Diana Ross and Marvin Gaye - You Are Everything
TTITLE9=Marvin Gaye and Tammi Terrell - I Wanna Be Were You Are
TTITLE10=Ain't Nothing Like The Real Thing
TTITLE11=Marvin Gaye and Tammi Terrell - California Soul
TTITLE12=Ain't That Peculiar
TTITLE13=Got To Give It Up
TTITLE14=Marvin Gaye and Tammi Terrell - If This World Were Mine
TTITLE15=Marvin Gaye and Tammi Terrell - Keep On Lovin' Me Honey
TTITLE16=Marvin Gaye and Kim Weston - It Takes Two
EXTD=
EXTT0=
EXTT1=
EXTT2=
EXTT3=
EXTT4=
EXTT5=
EXTT6=
EXTT7=
EXTT8=
EXTT9=
EXTT10=
EXTT11=
EXTT12=
EXTT13=
EXTT14=
EXTT15=
EXTT16=
PLAYORDER=
